<svg width="349" height="350" viewBox="0 0 349 350" fill="none" xmlns="http://www.w3.org/2000/svg">
<path d="M77.3077 283.477C86.1538 262.576 106.807 247.917 130.875 247.917H218.125C242.192 247.917 262.846 262.576 271.692 283.477M232.667 138.542C232.667 170.758 206.624 196.875 174.5 196.875C142.375 196.875 116.333 170.758 116.333 138.542C116.333 106.325 142.375 80.2083 174.5 80.2083C206.624 80.2083 232.667 106.325 232.667 138.542ZM319.917 175C319.917 255.542 254.811 320.833 174.5 320.833C94.1885 320.833 29.0833 255.542 29.0833 175C29.0833 94.4584 94.1885 29.1666 174.5 29.1666C254.811 29.1666 319.917 94.4584 319.917 175Z" stroke="white" stroke-width="2" stroke-linecap="round" stroke-linejoin="round"/>
</svg>
